<svg width="149" height="27" viewBox="0 0 149 27" fill="none" xmlns="http://www.w3.org/2000/svg">
<g filter="url(#filter0_d_5_2)">
<path d="M9.376 18.336C8.528 18.336 7.768 18.192 7.096 17.904C6.424 17.6 5.888 17.168 5.488 16.608C5.104 16.032 4.912 15.336 4.912 14.52C4.912 13.704 5.104 13.024 5.488 12.48C5.888 11.92 6.432 11.504 7.12 11.232C7.824 10.944 8.624 10.8 9.52 10.8H12.784V10.128C12.784 9.568 12.608 9.112 12.256 8.76C11.904 8.392 11.344 8.208 10.576 8.208C9.824 8.208 9.264 8.384 8.896 8.736C8.528 9.072 8.288 9.512 8.176 10.056L5.392 9.12C5.584 8.512 5.888 7.96 6.304 7.464C6.736 6.952 7.304 6.544 8.008 6.24C8.728 5.92 9.6 5.76 10.624 5.76C12.192 5.76 13.432 6.152 14.344 6.936C15.256 7.72 15.712 8.856 15.712 10.344V14.784C15.712 15.264 15.936 15.504 16.384 15.504H17.344V18H15.328C14.736 18 14.248 17.856 13.864 17.568C13.48 17.28 13.288 16.896 13.288 16.416V16.392H12.832C12.768 16.584 12.624 16.84 12.4 17.16C12.176 17.464 11.824 17.736 11.344 17.976C10.864 18.216 10.208 18.336 9.376 18.336ZM9.904 15.888C10.752 15.888 11.44 15.656 11.968 15.192C12.512 14.712 12.784 14.08 12.784 13.296V13.056H9.736C9.176 13.056 8.736 13.176 8.416 13.416C8.096 13.656 7.936 13.992 7.936 14.424C7.936 14.856 8.104 15.208 8.44 15.48C8.776 15.752 9.264 15.888 9.904 15.888ZM19.555 18V6.096H22.579V18H19.555ZM21.067 4.704C20.523 4.704 20.059 4.528 19.675 4.176C19.307 3.824 19.123 3.36 19.123 2.784C19.123 2.208 19.307 1.744 19.675 1.392C20.059 1.04 20.523 0.863999 21.067 0.863999C21.627 0.863999 22.091 1.04 22.459 1.392C22.827 1.744 23.011 2.208 23.011 2.784C23.011 3.36 22.827 3.824 22.459 4.176C22.091 4.528 21.627 4.704 21.067 4.704ZM25.93 18V1.2H28.954V18H25.93ZM36.865 18C36.081 18 35.441 17.76 34.945 17.28C34.465 16.784 34.225 16.128 34.225 15.312V8.592H31.249V6.096H34.225V2.4H37.249V6.096H40.513V8.592H37.249V14.784C37.249 15.264 37.473 15.504 37.921 15.504H40.225V18H36.865ZM48.4924 18.336C47.3084 18.336 46.2444 18.096 45.3004 17.616C44.3564 17.136 43.6124 16.44 43.0684 15.528C42.5244 14.616 42.2524 13.52 42.2524 12.24V11.856C42.2524 10.576 42.5244 9.48 43.0684 8.568C43.6124 7.656 44.3564 6.96 45.3004 6.48C46.2444 6 47.3084 5.76 48.4924 5.76C49.6764 5.76 50.7404 6 51.6844 6.48C52.6284 6.96 53.3724 7.656 53.9164 8.568C54.4604 9.48 54.7324 10.576 54.7324 11.856V12.24C54.7324 13.52 54.4604 14.616 53.9164 15.528C53.3724 16.44 52.6284 17.136 51.6844 17.616C50.7404 18.096 49.6764 18.336 48.4924 18.336ZM48.4924 15.648C49.4204 15.648 50.1884 15.352 50.7964 14.76C51.4044 14.152 51.7084 13.288 51.7084 12.168V11.928C51.7084 10.808 51.4044 9.952 50.7964 9.36C50.2044 8.752 49.4364 8.448 48.4924 8.448C47.5644 8.448 46.7964 8.752 46.1884 9.36C45.5804 9.952 45.2764 10.808 45.2764 11.928V12.168C45.2764 13.288 45.5804 14.152 46.1884 14.76C46.7964 15.352 47.5644 15.648 48.4924 15.648ZM57.5238 18V6.096H60.4998V7.656H60.9318C61.1238 7.24 61.4838 6.848 62.0117 6.48C62.5398 6.096 63.3398 5.904 64.4118 5.904C65.3398 5.904 66.1478 6.12 66.8358 6.552C67.5398 6.968 68.0838 7.552 68.4678 8.304C68.8518 9.04 69.0438 9.904 69.0438 10.896V18H66.0198V11.136C66.0198 10.24 65.7958 9.568 65.3478 9.12C64.9158 8.672 64.2918 8.448 63.4758 8.448C62.5478 8.448 61.8278 8.76 61.3158 9.384C60.8038 9.992 60.5478 10.848 60.5478 11.952V18H57.5238ZM72.3128 18V6.096H75.2888V7.44H75.7208C75.8968 6.96 76.1848 6.608 76.5848 6.384C77.0008 6.16 77.4808 6.048 78.0248 6.048H79.4648V8.736H77.9768C77.2088 8.736 76.5768 8.944 76.0808 9.36C75.5848 9.76 75.3368 10.384 75.3368 11.232V18H72.3128ZM81.8284 18V6.096H84.8524V18H81.8284ZM83.3404 4.704C82.7964 4.704 82.3324 4.528 81.9484 4.176C81.5804 3.824 81.3964 3.36 81.3964 2.784C81.3964 2.208 81.5804 1.744 81.9484 1.392C82.3324 1.04 82.7964 0.863999 83.3404 0.863999C83.9004 0.863999 84.3644 1.04 84.7324 1.392C85.1004 1.744 85.2844 2.208 85.2844 2.784C85.2844 3.36 85.1004 3.824 84.7324 4.176C84.3644 4.528 83.9004 4.704 83.3404 4.704ZM95.3554 18.336C94.2834 18.336 93.4594 18.152 92.8834 17.784C92.3074 17.416 91.8834 17.008 91.6114 16.56H91.1794V18H88.2034V1.2H91.2274V7.464H91.6594C91.8354 7.176 92.0674 6.904 92.3554 6.648C92.6594 6.392 93.0514 6.184 93.5314 6.024C94.0274 5.848 94.6354 5.76 95.3554 5.76C96.3154 5.76 97.2034 6 98.0194 6.48C98.8354 6.944 99.4914 7.632 99.9874 8.544C100.483 9.456 100.731 10.56 100.731 11.856V12.24C100.731 13.536 100.483 14.64 99.9874 15.552C99.4914 16.464 98.8354 17.16 98.0194 17.64C97.2034 18.104 96.3154 18.336 95.3554 18.336ZM94.4434 15.696C95.3714 15.696 96.1474 15.4 96.7714 14.808C97.3954 14.2 97.7074 13.32 97.7074 12.168V11.928C97.7074 10.776 97.3954 9.904 96.7714 9.312C96.1634 8.704 95.3874 8.4 94.4434 8.4C93.5154 8.4 92.7394 8.704 92.1154 9.312C91.4914 9.904 91.1794 10.776 91.1794 11.928V12.168C91.1794 13.32 91.4914 14.2 92.1154 14.808C92.7394 15.4 93.5154 15.696 94.4434 15.696ZM108.932 18.336C107.748 18.336 106.7 18.088 105.788 17.592C104.892 17.08 104.188 16.368 103.676 15.456C103.18 14.528 102.932 13.44 102.932 12.192V11.904C102.932 10.656 103.18 9.576 103.676 8.664C104.172 7.736 104.868 7.024 105.764 6.528C106.66 6.016 107.7 5.76 108.884 5.76C110.052 5.76 111.068 6.024 111.932 6.552C112.796 7.064 113.468 7.784 113.948 8.712C114.428 9.624 114.668 10.688 114.668 11.904V12.936H106.004C106.036 13.752 106.34 14.416 106.916 14.928C107.492 15.44 108.196 15.696 109.028 15.696C109.876 15.696 110.5 15.512 110.9 15.144C111.3 14.776 111.604 14.368 111.812 13.92L114.284 15.216C114.06 15.632 113.732 16.088 113.3 16.584C112.884 17.064 112.324 17.48 111.62 17.832C110.916 18.168 110.02 18.336 108.932 18.336ZM106.028 10.68H111.596C111.532 9.992 111.252 9.44 110.756 9.024C110.276 8.608 109.644 8.4 108.86 8.4C108.044 8.4 107.396 8.608 106.916 9.024C106.436 9.44 106.14 9.992 106.028 10.68ZM117.36 18V6.096H120.384V18H117.36ZM118.872 4.704C118.328 4.704 117.864 4.528 117.48 4.176C117.112 3.824 116.928 3.36 116.928 2.784C116.928 2.208 117.112 1.744 117.48 1.392C117.864 1.04 118.328 0.863999 118.872 0.863999C119.432 0.863999 119.896 1.04 120.264 1.392C120.632 1.744 120.816 2.208 120.816 2.784C120.816 3.36 120.632 3.824 120.264 4.176C119.896 4.528 119.432 4.704 118.872 4.704ZM123.735 18V6.096H126.711V7.44H127.143C127.319 6.96 127.607 6.608 128.007 6.384C128.423 6.16 128.903 6.048 129.447 6.048H130.887V8.736H129.399C128.631 8.736 127.999 8.944 127.503 9.36C127.007 9.76 126.759 10.384 126.759 11.232V18H123.735ZM138.492 18.336C137.308 18.336 136.244 18.096 135.3 17.616C134.356 17.136 133.612 16.44 133.068 15.528C132.524 14.616 132.252 13.52 132.252 12.24V11.856C132.252 10.576 132.524 9.48 133.068 8.568C133.612 7.656 134.356 6.96 135.3 6.48C136.244 6 137.308 5.76 138.492 5.76C139.676 5.76 140.74 6 141.684 6.48C142.628 6.96 143.372 7.656 143.916 8.568C144.46 9.48 144.732 10.576 144.732 11.856V12.24C144.732 13.52 144.46 14.616 143.916 15.528C143.372 16.44 142.628 17.136 141.684 17.616C140.74 18.096 139.676 18.336 138.492 18.336ZM138.492 15.648C139.42 15.648 140.188 15.352 140.796 14.76C141.404 14.152 141.708 13.288 141.708 12.168V11.928C141.708 10.808 141.404 9.952 140.796 9.36C140.204 8.752 139.436 8.448 138.492 8.448C137.564 8.448 136.796 8.752 136.188 9.36C135.58 9.952 135.276 10.808 135.276 11.928V12.168C135.276 13.288 135.58 14.152 136.188 14.76C136.796 15.352 137.564 15.648 138.492 15.648Z" fill="white"/>
</g>
<defs>
<filter id="filter0_d_5_2" x="0.912003" y="0.863998" width="147.82" height="25.472" filterUnits="userSpaceOnUse" color-interpolation-filters="sRGB">
<feFlood flood-opacity="0" result="BackgroundImageFix"/>
<feColorMatrix in="SourceAlpha" type="matrix" values="0 0 0 0 0 0 0 0 0 0 0 0 0 0 0 0 0 0 127 0" result="hardAlpha"/>
<feOffset dy="4"/>
<feGaussianBlur stdDeviation="2"/>
<feComposite in2="hardAlpha" operator="out"/>
<feColorMatrix type="matrix" values="0 0 0 0 0 0 0 0 0 0 0 0 0 0 0 0 0 0 0.25 0"/>
<feBlend mode="normal" in2="BackgroundImageFix" result="effect1_dropShadow_5_2"/>
<feBlend mode="normal" in="SourceGraphic" in2="effect1_dropShadow_5_2" result="shape"/>
</filter>
</defs>
</svg>
